<svg xmlns="http://www.w3.org/2000/svg" viewBox="0 0 512 512">
  <defs>
    <linearGradient id="bgGradient" x1="0%" y1="0%" x2="100%" y2="100%">
      <stop offset="0%" style="stop-color:#FF6B6B"/>
      <stop offset="100%" style="stop-color:#EE5A5A"/>
    </linearGradient>
    <linearGradient id="taiwanGradient" x1="0%" y1="0%" x2="100%" y2="100%">
      <stop offset="0%" style="stop-color:#FFFFFF"/>
      <stop offset="100%" style="stop-color:#F0F0F0"/>
    </linearGradient>
  </defs>

  <!-- Background -->
  <rect width="512" height="512" rx="100" fill="url(#bgGradient)"/>

  <!-- Taiwan Island Shape (simplified) -->
  <path d="M280 80
           C320 90, 350 130, 360 180
           C370 230, 365 280, 355 330
           C345 380, 320 420, 280 440
           C240 460, 200 450, 170 420
           C140 390, 130 340, 135 290
           C140 240, 160 190, 190 150
           C220 110, 250 85, 280 80Z"
        fill="url(#taiwanGradient)"
        stroke="#FFFFFF"
        stroke-width="3"
        opacity="0.95"/>

  <!-- Ramen Bowl -->
  <ellipse cx="265" cy="320" rx="85" ry="35" fill="#FFF5E6" stroke="#E8D5B7" stroke-width="3"/>
  <ellipse cx="265" cy="310" rx="75" ry="28" fill="#FFE4C4"/>

  <!-- Soup/Broth -->
  <ellipse cx="265" cy="305" rx="65" ry="22" fill="#D4A574"/>

  <!-- Noodles -->
  <path d="M210 300 Q230 310 250 295 Q270 280 290 300 Q310 320 320 305"
        stroke="#F5DEB3" stroke-width="6" fill="none" stroke-linecap="round"/>
  <path d="M215 310 Q235 295 255 315 Q275 335 295 310"
        stroke="#F5DEB3" stroke-width="5" fill="none" stroke-linecap="round"/>

  <!-- Egg (halved) -->
  <ellipse cx="235" cy="290" rx="18" ry="12" fill="#FFFFFF" stroke="#E8D5B7" stroke-width="2"/>
  <ellipse cx="235" cy="290" rx="10" ry="7" fill="#FFB347"/>

  <!-- Green onion -->
  <rect x="280" y="280" width="25" height="6" rx="3" fill="#90EE90" transform="rotate(-20 292 283)"/>
  <rect x="275" y="290" width="20" height="5" rx="2" fill="#98FB98" transform="rotate(15 285 292)"/>

  <!-- Meat slice -->
  <ellipse cx="300" cy="295" rx="15" ry="8" fill="#CD853F" stroke="#8B4513" stroke-width="1"/>

  <!-- Steam -->
  <path d="M230 250 Q225 235 235 220" stroke="#FFFFFF" stroke-width="4" fill="none" stroke-linecap="round" opacity="0.7"/>
  <path d="M260 245 Q255 225 265 210" stroke="#FFFFFF" stroke-width="4" fill="none" stroke-linecap="round" opacity="0.6"/>
  <path d="M290 250 Q285 230 295 215" stroke="#FFFFFF" stroke-width="4" fill="none" stroke-linecap="round" opacity="0.7"/>

  <!-- Chopsticks -->
  <rect x="180" y="180" width="8" height="140" rx="4" fill="#8B4513" transform="rotate(25 184 250)"/>
  <rect x="195" y="175" width="8" height="140" rx="4" fill="#A0522D" transform="rotate(20 199 245)"/>

  <!-- Small food icons scattered on Taiwan -->
  <!-- Dumpling -->
  <ellipse cx="200" cy="160" rx="15" ry="10" fill="#FFF8DC" stroke="#DEB887" stroke-width="2"/>
  <path d="M185 160 Q200 150 215 160" stroke="#DEB887" stroke-width="2" fill="none"/>

  <!-- Bubble tea -->
  <path d="M320 180 L310 220 L340 220 L330 180 Z" fill="#D2691E" stroke="#8B4513" stroke-width="2"/>
  <circle cx="320" cy="205" r="4" fill="#2F4F4F"/>
  <circle cx="328" cy="210" r="3" fill="#2F4F4F"/>
  <circle cx="315" cy="212" r="3" fill="#2F4F4F"/>
  <ellipse cx="325" cy="180" rx="12" ry="5" fill="#FFFFFF"/>

  <!-- Text: TW at bottom -->
  <text x="256" y="480" font-family="Arial, sans-serif" font-size="48" font-weight="bold" fill="#FFFFFF" text-anchor="middle" opacity="0.9">
    TW
  </text>
</svg>
